<?xml version="1.0" encoding="UTF-8" standalone="no"?>
<svg
   xmlns:dc="http://purl.org/dc/elements/1.1/"
   xmlns:cc="http://creativecommons.org/ns#"
   xmlns:rdf="http://www.w3.org/1999/02/22-rdf-syntax-ns#"
   xmlns:svg="http://www.w3.org/2000/svg"
   xmlns="http://www.w3.org/2000/svg"
   xmlns:xlink="http://www.w3.org/1999/xlink"
   xmlns:sodipodi="http://sodipodi.sourceforge.net/DTD/sodipodi-0.dtd"
   xmlns:inkscape="http://www.inkscape.org/namespaces/inkscape"
   width="120"
   height="120"
   version="1.1"
   id="svg24"
   sodipodi:docname="cover.svg"
   inkscape:version="0.92.0 r">
  <metadata
     id="metadata28">
    <rdf:RDF>
      <cc:Work
         rdf:about="">
        <dc:format>image/svg+xml</dc:format>
        <dc:type
           rdf:resource="http://purl.org/dc/dcmitype/StillImage" />
        <dc:title></dc:title>
      </cc:Work>
    </rdf:RDF>
  </metadata>
  <sodipodi:namedview
     pagecolor="#ffffff"
     bordercolor="#666666"
     borderopacity="1"
     objecttolerance="10"
     gridtolerance="10"
     guidetolerance="10"
     inkscape:pageopacity="0"
     inkscape:pageshadow="2"
     inkscape:window-width="1366"
     inkscape:window-height="689"
     id="namedview26"
     showgrid="false"
     inkscape:zoom="1.84375"
     inkscape:cx="38.788538"
     inkscape:cy="60.000117"
     inkscape:window-x="0"
     inkscape:window-y="28"
     inkscape:window-maximized="1"
     inkscape:current-layer="g22"
     fit-margin-top="0"
     fit-margin-left="0"
     fit-margin-right="0"
     fit-margin-bottom="0" />
  <defs
     id="defs8">
    <linearGradient
       id="a"
       y1="292.76999"
       y2="267.37"
       gradientUnits="userSpaceOnUse"
       x2="0"
       gradientTransform="matrix(0.96206,0,0,1.10236,382.5,223.06)">
      <stop
         stop-color="#ffffff"
         stop-opacity="0"
         id="stop2" />
      <stop
         offset="1"
         stop-color="#ffffff"
         stop-opacity=".2"
         id="stop4" />
    </linearGradient>
    <path
       id="b"
       d="m 386.57,517.8 v 28 h 24.436 v -11.958 h -2.291 c -0.987,0 -1.782,-0.911 -1.782,-2.042 0,-1.131 0.795,-2.042 1.782,-2.042 h 2.291 V 517.8 Z"
       inkscape:connector-curvature="0" />
  </defs>
  <g
     transform="matrix(4.2854832,0,0,4.2854832,-1648.9993,-2219.02)"
     id="g22">
    <g
       id="g4559">
      <path
         style="fill:#d9d9d9"
         inkscape:connector-curvature="0"
         id="path10"
         d="m 401.19649,518.17779 a 11.45454,13.125 0 0 0 -11.45453,13.125 11.45454,13.125 0 0 0 11.45453,13.125 11.45454,13.125 0 0 0 11.45455,-13.125 11.45454,13.125 0 0 0 -11.45455,-13.125 m 0,9.33334 a 3.309086,3.791661 0 0 1 3.3091,3.79166 3.309086,3.791661 0 0 1 -3.3091,3.79167 3.309086,3.791661 0 0 1 -3.30908,-3.79167 3.309086,3.791661 0 0 1 3.30908,-3.79166 m 0,0.875 a 2.54545,2.916661 0 0 0 -2.54545,2.91666 2.54545,2.916661 0 0 0 2.54545,2.91667 2.54545,2.916661 0 0 0 2.54547,-2.91667 2.54545,2.916661 0 0 0 -2.54547,-2.91666 m 0,1.45833 a 1.272722,1.458328 0 0 1 1.27274,1.45833 1.272722,1.458328 0 0 1 -1.27274,1.45834 1.272722,1.458328 0 0 1 -1.27272,-1.45834 1.272722,1.458328 0 0 1 1.27272,-1.45833" />
      <g
         transform="matrix(1.1459122,0,0,1.0000535,-58.188023,-0.02844434)"
         id="g4550">
        <use
           xlink:href="#b"
           id="use12"
           style="fill:#aaaaaa"
           x="0"
           y="0"
           width="100%"
           height="100%" />
        <rect
           width="24.405001"
           x="386.57001"
           y="544.79999"
           height="1"
           id="rect16"
           style="fill:#2e3132;fill-opacity:0.294" />
        <rect
           width="24.405001"
           x="386.57001"
           y="517.79999"
           height="1"
           id="rect18"
           style="fill:#ffffff;fill-opacity:0.41199999" />
        <use
           xlink:href="#b"
           id="use20"
           style="fill:url(#a)"
           x="0"
           y="0"
           width="100%"
           height="100%" />
      </g>
      <path
         style="opacity:0.75;fill:#ffffff;stroke-width:1"
         inkscape:connector-curvature="0"
         id="path14"
         d="m 394.07451,526.51113 v 8.281 c -0.295,-0.171 -0.635,-0.281 -1,-0.281 -1.105,0 -2,0.895 -2,2 0,1.105 0.895,2 2,2 1.105,0 2,-0.895 2,-2 v -7 h 7 v 4.281 c -0.295,-0.171 -0.635,-0.281 -1,-0.281 -1.105,0 -2,0.895 -2,2 0,1.105 0.895,2 2,2 1.105,0 2,-0.895 2,-2 v -9 z m 1,1 h 7 v 1 h -7 z" />
    </g>
  </g>
</svg>
