<?xml version="1.0" encoding="UTF-8" standalone="no"?>
<!-- Created with Inkscape (http://www.inkscape.org/) -->

<svg
   xmlns:dc="http://purl.org/dc/elements/1.1/"
   xmlns:cc="http://creativecommons.org/ns#"
   xmlns:rdf="http://www.w3.org/1999/02/22-rdf-syntax-ns#"
   xmlns:svg="http://www.w3.org/2000/svg"
   xmlns="http://www.w3.org/2000/svg"
   xmlns:xlink="http://www.w3.org/1999/xlink"
   xmlns:sodipodi="http://sodipodi.sourceforge.net/DTD/sodipodi-0.dtd"
   xmlns:inkscape="http://www.inkscape.org/namespaces/inkscape"
   width="64"
   height="64"
   viewBox="0 0 16.933333 16.933333"
   version="1.1"
   id="svg15433"
   inkscape:version="0.92.0 r"
   sodipodi:docname="babe_64.svg">
  <defs
     id="defs15427">
    <radialGradient
       gradientTransform="matrix(0,10.130722,-12.437291,0,150.32592,-84.438377)"
       gradientUnits="userSpaceOnUse"
       xlink:href="#linearGradient2867-449-88-871-390-598-476-591-434-148-57-177-8-3-3-6-4-8-8-8"
       id="radialGradient5521-1"
       fy="9.9571075"
       fx="6.2001843"
       r="12.671875"
       cy="9.9571075"
       cx="6.7304144" />
    <linearGradient
       id="linearGradient2867-449-88-871-390-598-476-591-434-148-57-177-8-3-3-6-4-8-8-8">
      <stop
         offset="0"
         style="stop-color:#f85b79;stop-opacity:1;"
         id="stop3750-1-0-7-6-6-1-3-9" />
      <stop
         offset="0.26238"
         style="stop-color:#f85b79;stop-opacity:1;"
         id="stop3752-3-7-4-0-32-8-923-0" />
      <stop
         offset="0.704952"
         style="stop-color:#f85b79;stop-opacity:1;"
         id="stop3754-1-8-5-2-7-6-7-1" />
      <stop
         offset="1"
         style="stop-color:#f85b79;stop-opacity:1;"
         id="stop3756-1-6-2-6-6-1-96-6" />
    </linearGradient>
  </defs>
  <sodipodi:namedview
     id="base"
     pagecolor="#ffffff"
     bordercolor="#666666"
     borderopacity="1.0"
     inkscape:pageopacity="0.0"
     inkscape:pageshadow="2"
     inkscape:zoom="3.959798"
     inkscape:cx="48.259637"
     inkscape:cy="16.911601"
     inkscape:document-units="mm"
     inkscape:current-layer="g12605"
     showgrid="false"
     units="px"
     inkscape:window-width="1366"
     inkscape:window-height="689"
     inkscape:window-x="0"
     inkscape:window-y="28"
     inkscape:window-maximized="1" />
  <metadata
     id="metadata15430">
    <rdf:RDF>
      <cc:Work
         rdf:about="">
        <dc:format>image/svg+xml</dc:format>
        <dc:type
           rdf:resource="http://purl.org/dc/dcmitype/StillImage" />
        <dc:title></dc:title>
      </cc:Work>
    </rdf:RDF>
  </metadata>
  <g
     inkscape:label="Layer 1"
     inkscape:groupmode="layer"
     id="layer1"
     transform="translate(0,-280.06665)">
    <g
       transform="matrix(0.26458333,0,0,0.26458333,-0.4233365,283.59443)"
       id="g12605">
      <g
         id="g16322"
         transform="matrix(1.3460258,0,0,1.3460258,-0.85826465,-17.227354)">
        <rect
           style="color:#000000;display:inline;overflow:visible;visibility:visible;fill:url(#radialGradient5521-1);fill-opacity:1;fill-rule:nonzero;stroke:none;stroke-width:1.0666666;marker:none;enable-background:accumulate"
           id="rect5505-21"
           y="5.8666611"
           x="4.8000131"
           ry="2.1333334"
           rx="2.1333334"
           height="41.599998"
           width="41.599998" />
        <path
           inkscape:connector-curvature="0"
           id="rect3834-3"
           d="m 16.822593,14.199375 c 0,1.136903 0,2.273805 0,3.410707 1.515871,0 3.03174,0 4.54761,0 0,-1.136902 0,-2.273804 0,-3.410707 -1.51587,0 -3.031739,0 -4.54761,0 z"
           style="color:#000000;display:inline;overflow:visible;visibility:visible;fill:#ffffff;fill-opacity:1;fill-rule:nonzero;stroke:none;stroke-width:1.13690269;marker:none;enable-background:accumulate" />
        <path
           inkscape:connector-curvature="0"
           id="rect3834-3-8"
           d="m 10.39407,16.476154 c 0,1.136903 0,2.273805 0,3.410708 1.515871,0 3.031741,0 4.547611,0 0,-1.136903 0,-2.273805 0,-3.410708 -1.51587,0 -3.03174,0 -4.547611,0 z"
           style="color:#000000;display:inline;overflow:visible;visibility:visible;fill:#ffffff;fill-opacity:1;fill-rule:nonzero;stroke:none;stroke-width:1.13690269;marker:none;enable-background:accumulate" />
        <path
           inkscape:connector-curvature="0"
           id="rect3834-3-45"
           d="m 16.822594,19.898351 c 0,1.136903 0,2.273805 0,3.410708 1.51587,0 3.031739,0 4.547609,0 0,-1.136903 0,-2.273805 0,-3.410708 -1.51587,0 -3.031739,0 -4.547609,0 z"
           style="color:#000000;display:inline;overflow:visible;visibility:visible;fill:#ffffff;fill-opacity:1;fill-rule:nonzero;stroke:none;stroke-width:1.13690269;marker:none;enable-background:accumulate" />
        <path
           inkscape:connector-curvature="0"
           id="rect3834-3-56"
           d="m 16.822593,25.568981 c 0,1.136903 0,2.273805 0,3.410708 1.51587,0 3.03174,0 4.54761,0 0,-1.136903 0,-2.273805 0,-3.410708 -1.51587,0 -3.03174,0 -4.54761,0 z"
           style="color:#000000;display:inline;overflow:visible;visibility:visible;fill:#ffffff;fill-opacity:1;fill-rule:nonzero;stroke:none;stroke-width:1.13690269;marker:none;enable-background:accumulate" />
        <path
           inkscape:connector-curvature="0"
           id="rect3834-3-39"
           d="m 16.77203,31.289023 c 0,1.136903 0,2.273805 0,3.410708 1.51587,0 3.03174,0 4.54761,0 0,-1.136903 0,-2.273805 0,-3.410708 -1.51587,0 -3.03174,0 -4.54761,0 z"
           style="color:#000000;display:inline;overflow:visible;visibility:visible;fill:#ffffff;fill-opacity:1;fill-rule:nonzero;stroke:none;stroke-width:1.13690269;marker:none;enable-background:accumulate" />
        <path
           inkscape:connector-curvature="0"
           id="rect3834-3-48"
           d="m 10.431511,22.057785 c 0,1.136903 0,2.273805 0,3.410708 1.50339,0 3.00678,0 4.51017,0 0,-1.136903 0,-2.273805 0,-3.410708 -1.50339,0 -3.00678,0 -4.51017,0 z"
           style="color:#000000;display:inline;overflow:visible;visibility:visible;fill:#ffffff;fill-opacity:1;fill-rule:nonzero;stroke:none;stroke-width:1.13221288;marker:none;enable-background:accumulate" />
        <path
           inkscape:connector-curvature="0"
           id="rect3834-3-14"
           d="m 10.394071,27.82247 c 0,1.136903 0,2.273805 0,3.410708 1.51587,0 3.03174,0 4.54761,0 0,-1.136903 0,-2.273805 0,-3.410708 -1.51587,0 -3.03174,0 -4.54761,0 z"
           style="color:#000000;display:inline;overflow:visible;visibility:visible;fill:#ffffff;fill-opacity:1;fill-rule:nonzero;stroke:none;stroke-width:1.13690269;marker:none;enable-background:accumulate" />
        <path
           inkscape:connector-curvature="0"
           id="rect3834-3-90"
           d="m 23.308911,18.753662 c 0,1.136903 0,2.273805 0,3.410708 1.51587,0 3.03174,0 4.54761,0 0,-1.136903 0,-2.273805 0,-3.410708 -1.51587,0 -3.03174,0 -4.54761,0 z"
           style="color:#000000;display:inline;overflow:visible;visibility:visible;fill:#ffffff;fill-opacity:1;fill-rule:nonzero;stroke:none;stroke-width:1.13690269;marker:none;enable-background:accumulate" />
        <path
           inkscape:connector-curvature="0"
           id="rect3834-3-45-5"
           d="m 23.300646,24.41653 c 0,1.136903 0,2.273804 0,3.410707 1.51587,0 3.03174,0 4.547609,0 0,-1.136903 0,-2.273804 0,-3.410707 -1.515869,0 -3.031739,0 -4.547609,0 z"
           style="color:#000000;display:inline;overflow:visible;visibility:visible;fill:#ffffff;fill-opacity:1;fill-rule:nonzero;stroke:none;stroke-width:1.13690269;marker:none;enable-background:accumulate" />
        <path
           inkscape:connector-curvature="0"
           id="rect3834-3-56-3"
           d="m 23.308911,30.08716 c 0,1.136903 0,2.273804 0,3.410707 1.51587,0 3.03174,0 4.54761,0 0,-1.136903 0,-2.273804 0,-3.410707 -1.51587,0 -3.03174,0 -4.54761,0 z"
           style="color:#000000;display:inline;overflow:visible;visibility:visible;fill:#ffffff;fill-opacity:1;fill-rule:nonzero;stroke:none;stroke-width:1.13690269;marker:none;enable-background:accumulate" />
        <path
           inkscape:connector-curvature="0"
           id="rect3834-3-39-6"
           d="m 23.338239,35.807201 c 0,1.136903 0,2.273805 0,3.410708 1.51587,0 3.03174,0 4.54761,0 0,-1.136903 0,-2.273805 0,-3.410708 -1.51587,0 -3.03174,0 -4.54761,0 z"
           style="color:#000000;display:inline;overflow:visible;visibility:visible;fill:#ffffff;fill-opacity:1;fill-rule:nonzero;stroke:none;stroke-width:1.13690269;marker:none;enable-background:accumulate" />
        <path
           inkscape:connector-curvature="0"
           id="rect3834-3-49"
           d="m 34.176762,14.199374 c 0,1.136903 0,2.273805 0,3.410708 -1.51587,0 -3.03174,0 -4.54761,0 0,-1.136903 0,-2.273805 0,-3.410708 1.51587,0 3.03174,0 4.54761,0 z"
           style="color:#000000;display:inline;overflow:visible;visibility:visible;fill:#ffffff;fill-opacity:1;fill-rule:nonzero;stroke:none;stroke-width:1.13690269;marker:none;enable-background:accumulate" />
        <path
           inkscape:connector-curvature="0"
           id="rect3834-3-8-7"
           d="m 40.649996,16.476155 c 0,1.136903 0,2.273805 0,3.410707 -1.51587,0 -3.03174,0 -4.54761,0 0,-1.136902 0,-2.273804 0,-3.410707 1.51587,0 3.03174,0 4.54761,0 z"
           style="color:#000000;display:inline;overflow:visible;visibility:visible;fill:#ffffff;fill-opacity:1;fill-rule:nonzero;stroke:none;stroke-width:1.13690269;marker:none;enable-background:accumulate" />
        <path
           inkscape:connector-curvature="0"
           id="rect3834-3-45-7"
           d="m 34.176761,19.886862 c 0,1.136903 0,2.273805 0,3.410708 -1.51587,0 -3.031739,0 -4.547609,0 0,-1.136903 0,-2.273805 0,-3.410708 1.51587,0 3.031739,0 4.547609,0 z"
           style="color:#000000;display:inline;overflow:visible;visibility:visible;fill:#ffffff;fill-opacity:1;fill-rule:nonzero;stroke:none;stroke-width:1.13690269;marker:none;enable-background:accumulate" />
        <path
           inkscape:connector-curvature="0"
           id="rect3834-3-56-0"
           d="m 34.13809,25.497925 c 0,1.136903 0,2.273805 0,3.410708 -1.51587,0 -3.03174,0 -4.54761,0 0,-1.136903 0,-2.273805 0,-3.410708 1.51587,0 3.03174,0 4.54761,0 z"
           style="color:#000000;display:inline;overflow:visible;visibility:visible;fill:#ffffff;fill-opacity:1;fill-rule:nonzero;stroke:none;stroke-width:1.13690269;marker:none;enable-background:accumulate" />
        <path
           inkscape:connector-curvature="0"
           id="rect3834-3-39-9"
           d="m 34.13809,31.217967 c 0,1.136903 0,2.273805 0,3.410708 -1.51587,0 -3.03174,0 -4.54761,0 0,-1.136903 0,-2.273805 0,-3.410708 1.51587,0 3.03174,0 4.54761,0 z"
           style="color:#000000;display:inline;overflow:visible;visibility:visible;fill:#ffffff;fill-opacity:1;fill-rule:nonzero;stroke:none;stroke-width:1.13690269;marker:none;enable-background:accumulate" />
        <path
           inkscape:connector-curvature="0"
           id="rect3834-3-48-6"
           d="m 40.612555,22.057785 c 0,1.136903 0,2.273805 0,3.410707 -1.50339,0 -3.00678,0 -4.510169,0 0,-1.136902 0,-2.273804 0,-3.410707 1.503389,0 3.006779,0 4.510169,0 z"
           style="color:#000000;display:inline;overflow:visible;visibility:visible;fill:#ffffff;fill-opacity:1;fill-rule:nonzero;stroke:none;stroke-width:1.13221288;marker:none;enable-background:accumulate" />
        <path
           inkscape:connector-curvature="0"
           id="rect3834-3-14-0"
           d="m 40.649996,27.840699 c 0,1.136903 0,2.273805 0,3.410708 -1.51587,0 -3.03174,0 -4.54761,0 0,-1.136903 0,-2.273805 0,-3.410708 1.51587,0 3.03174,0 4.54761,0 z"
           style="color:#000000;display:inline;overflow:visible;visibility:visible;fill:#ffffff;fill-opacity:1;fill-rule:nonzero;stroke:none;stroke-width:1.13690269;marker:none;enable-background:accumulate" />
      </g>
    </g>
  </g>
</svg>
