<?xml version="1.0" encoding="UTF-8" standalone="no"?>
<svg
   xmlns:dc="http://purl.org/dc/elements/1.1/"
   xmlns:cc="http://creativecommons.org/ns#"
   xmlns:rdf="http://www.w3.org/1999/02/22-rdf-syntax-ns#"
   xmlns:svg="http://www.w3.org/2000/svg"
   xmlns="http://www.w3.org/2000/svg"
   xmlns:sodipodi="http://sodipodi.sourceforge.net/DTD/sodipodi-0.dtd"
   xmlns:inkscape="http://www.inkscape.org/namespaces/inkscape"
   width="300"
   height="300"
   version="1.1"
   id="svg24"
   sodipodi:docname="empty.svg"
   inkscape:version="0.92.1 r">
  <metadata
     id="metadata28">
    <rdf:RDF>
      <cc:Work
         rdf:about="">
        <dc:format>image/svg+xml</dc:format>
        <dc:type
           rdf:resource="http://purl.org/dc/dcmitype/StillImage" />
        <dc:title></dc:title>
      </cc:Work>
    </rdf:RDF>
  </metadata>
  <sodipodi:namedview
     pagecolor="#ffffff"
     bordercolor="#666666"
     borderopacity="1"
     objecttolerance="10"
     gridtolerance="10"
     guidetolerance="10"
     inkscape:pageopacity="0"
     inkscape:pageshadow="2"
     inkscape:window-width="1920"
     inkscape:window-height="994"
     id="namedview26"
     showgrid="false"
     inkscape:zoom="0.92187499"
     inkscape:cx="185.51599"
     inkscape:cy="239.93443"
     inkscape:window-x="0"
     inkscape:window-y="30"
     inkscape:window-maximized="1"
     inkscape:current-layer="layer1"
     fit-margin-top="0"
     fit-margin-left="0"
     fit-margin-right="0"
     fit-margin-bottom="0" />
  <defs
     id="defs8">
    <linearGradient
       id="a"
       y1="292.76999"
       y2="267.37"
       gradientUnits="userSpaceOnUse"
       x2="0"
       gradientTransform="matrix(0.96206,0,0,1.10236,382.5,223.06)">
      <stop
         stop-color="#ffffff"
         stop-opacity="0"
         id="stop2" />
      <stop
         offset="1"
         stop-color="#ffffff"
         stop-opacity=".2"
         id="stop4" />
    </linearGradient>
    <path
       id="b"
       d="m 386.57,517.8 v 28 h 24.436 v -11.958 h -2.291 c -0.987,0 -1.782,-0.911 -1.782,-2.042 0,-1.131 0.795,-2.042 1.782,-2.042 h 2.291 V 517.8 Z"
       inkscape:connector-curvature="0" />
  </defs>
  <g
     transform="matrix(4.2854832,0,0,4.2854832,-1588.9993,-2099.02)"
     id="g22">
    <g
       id="g4559">
      <g
         transform="matrix(3.854915,0,0,3.854915,387.05862,-601.89037)"
         id="layer1"
         inkscape:label="Capa 1">
        <rect
           style="opacity:1;fill:#ffd5e5;fill-opacity:0.98206278;stroke:#000000;stroke-width:0.11439128;stroke-linecap:square;stroke-linejoin:round;stroke-miterlimit:4;stroke-dasharray:none;stroke-dashoffset:10.35373592;stroke-opacity:0.38528137"
           id="rect4507"
           width="24.853024"
           height="20.978971"
           x="-7.7997098"
           y="282.04883"
           rx="0.1222935"
           ry="0.64203924" />
        <path
           style="fill:#808080;stroke-width:1"
           d="m 4.3294886,289.89237 c -1.1726254,0 -2.1166122,0.94399 -2.1166122,2.11661 v 0.52919 c 0,1.17262 0.9439868,2.11673 2.1166122,2.11673 h 1.0583647 c 1.1726245,0 2.1166121,-0.94411 2.1166121,-2.11673 v -0.52919 c 0,-1.17262 -0.9439876,-2.11661 -2.1166121,-2.11661 z m -1.0350747,2.6458 a 0.39687497,0.39687497 0 0 0 0.3735962,0.26459 0.39687497,0.39687497 0 0 0 0.3737146,-0.26459 0.39687497,0.39687497 0 0 1 0.023172,0.13229 0.39687497,0.39687497 0 0 1 -0.3968868,0.39689 0.39687497,0.39687497 0 0 1 -0.3968868,-0.39689 0.39687497,0.39687497 0 0 1 0.023291,-0.13229 z m 2.3813214,0 a 0.39687498,0.39687498 0 0 0 0.3735965,0.26459 0.39687498,0.39687498 0 0 0 0.373596,-0.26459 0.39687498,0.39687498 0 0 1 0.023291,0.13229 0.39687498,0.39687498 0 0 1 -0.3968869,0.39689 0.39687498,0.39687498 0 0 1 -0.3968874,-0.39689 0.39687498,0.39687498 0 0 1 0.023291,-0.13229 z m -1.9356069,0.99015 c 0.054934,-0.003 0.1175486,0.0167 0.183606,0.0682 0.018266,0.0184 0.036566,0.0359 0.054975,0.0527 0.022598,0.0206 0.045317,0.0399 0.068098,0.0582 0.037242,0.0298 0.074703,0.0567 0.1123154,0.0809 0.2335157,0.14998 0.4727378,0.19835 0.6995472,0.23645 -7.264e-4,0.13223 -1.3228319,0.20994 -1.3228379,-0.26459 -2.56e-5,-0.11267 0.083442,-0.22578 0.2042956,-0.23184 z"
           id="rect4152"
           inkscape:connector-curvature="0" />
        <path
           d="m 6.7632519,289.90262 v 0.26459 h 0.9203574 l -0.9203574,0.79168 v 0.002 0.26458 h 0.095085 1.2278321 v -0.26458 H 7.1658112 l 0.9203574,-0.79117 v -0.26717 z m -1.3229167,0.52917 v 0.26458 H 6.081123 l -0.6407878,0.52452 v 0.005 0.26458 h 0.0894 0.9689331 v -0.26458 H 5.8527132 l 0.6459554,-0.52865 v -5.2e-4 -0.26458 z"
           id="rect4190"
           style="fill:#ffffff;stroke-width:0.99999988"
           inkscape:connector-curvature="0" />
      </g>
    </g>
  </g>
</svg>
