<?xml version="1.0" encoding="UTF-8" standalone="no"?>
<svg
   xmlns:dc="http://purl.org/dc/elements/1.1/"
   xmlns:cc="http://creativecommons.org/ns#"
   xmlns:rdf="http://www.w3.org/1999/02/22-rdf-syntax-ns#"
   xmlns:svg="http://www.w3.org/2000/svg"
   xmlns="http://www.w3.org/2000/svg"
   xmlns:sodipodi="http://sodipodi.sourceforge.net/DTD/sodipodi-0.dtd"
   xmlns:inkscape="http://www.inkscape.org/namespaces/inkscape"
   viewBox="0 0 16 16"
   version="1.1"
   id="svg6"
   sodipodi:docname="love-amarok.svg"
   inkscape:version="0.92.0 r">
  <metadata
     id="metadata10">
    <rdf:RDF>
      <cc:Work
         rdf:about="">
        <dc:format>image/svg+xml</dc:format>
        <dc:type
           rdf:resource="http://purl.org/dc/dcmitype/StillImage" />
      </cc:Work>
    </rdf:RDF>
  </metadata>
  <sodipodi:namedview
     pagecolor="#ffffff"
     bordercolor="#666666"
     borderopacity="1"
     objecttolerance="10"
     gridtolerance="10"
     guidetolerance="10"
     inkscape:pageopacity="0"
     inkscape:pageshadow="2"
     inkscape:window-width="735"
     inkscape:window-height="480"
     id="namedview8"
     showgrid="false"
     inkscape:zoom="14.75"
     inkscape:cx="0.54237288"
     inkscape:cy="8"
     inkscape:window-x="0"
     inkscape:window-y="28"
     inkscape:window-maximized="0"
     inkscape:current-layer="svg6" />
  <defs
     id="defs3051">
    <style
       type="text/css"
       id="current-color-scheme">
      .ColorScheme-Text {
        color:#4d4d4d;
      }
      </style>
  </defs>
  <path
     style="fill:#ffffff;fill-opacity:1;stroke:none"
     d="M 4 2 C 2.343 2 1 3.343 1 5 C 1 9 6 12 8 14 C 10 12 15 9 15 5 C 15 3.343 13.657 2 12 2 C 9 2 8 4 8 4 C 8 4 7 2 4 2 z M 4 3 C 5.7191685 2.9867647 6.6355364 3.8577363 7.3359375 5 L 8.6269531 5 C 9.4443651 3.7484379 10.628397 3.0161834 12 3 C 13.116666 3 14 3.8833339 14 5 C 14 6.5833333 12.964401 8.1215362 11.542969 9.5429688 C 10.357873 10.728065 9.0760263 11.709469 8 12.669922 C 6.9239737 11.709469 5.6421273 10.728065 4.4570312 9.5429688 C 3.0355987 8.121536 2 6.5833333 2 5 C 2 3.8833339 2.8833339 3 4 3 z "
     class="ColorScheme-Text"
     id="path4" />
</svg>
