<?xml version="1.0" encoding="UTF-8" standalone="no"?>
<svg
   xmlns:dc="http://purl.org/dc/elements/1.1/"
   xmlns:cc="http://creativecommons.org/ns#"
   xmlns:rdf="http://www.w3.org/1999/02/22-rdf-syntax-ns#"
   xmlns:svg="http://www.w3.org/2000/svg"
   xmlns="http://www.w3.org/2000/svg"
   xmlns:sodipodi="http://sodipodi.sourceforge.net/DTD/sodipodi-0.dtd"
   xmlns:inkscape="http://www.inkscape.org/namespaces/inkscape"
   viewBox="0 0 16 16"
   version="1.1"
   id="svg12"
   sodipodi:docname="tracks_selected.svg"
   inkscape:version="0.92.1 r">
  <metadata
     id="metadata16">
    <rdf:RDF>
      <cc:Work
         rdf:about="">
        <dc:format>image/svg+xml</dc:format>
        <dc:type
           rdf:resource="http://purl.org/dc/dcmitype/StillImage" />
        <dc:title></dc:title>
      </cc:Work>
    </rdf:RDF>
  </metadata>
  <sodipodi:namedview
     pagecolor="#ffffff"
     bordercolor="#666666"
     borderopacity="1"
     objecttolerance="10"
     gridtolerance="10"
     guidetolerance="10"
     inkscape:pageopacity="0"
     inkscape:pageshadow="2"
     inkscape:window-width="1179"
     inkscape:window-height="584"
     id="namedview14"
     showgrid="false"
     inkscape:zoom="14.75"
     inkscape:cx="0.54237288"
     inkscape:cy="8"
     inkscape:window-x="36"
     inkscape:window-y="87"
     inkscape:window-maximized="0"
     inkscape:current-layer="svg12" />
  <defs
     id="defs3051">
    <style
       type="text/css"
       id="current-color-scheme">
      .ColorScheme-Text {
        color:#4d4d4d;
      }
      </style>
  </defs>
  <path
     style="fill:#2196f3;fill-opacity:1;stroke:none"
     d="M 5 2 L 5 3 L 5 10.28125 C 4.70546 10.11049 4.36497 10 4 10 C 2.89543 10 2 10.89544 2 12 C 2 13.10456 2.89543 14 4 14 C 5.10457 14 6 13.10456 6 12 L 6 5 L 13 5 L 13 9.28125 C 12.70546 9.11049 12.36496 9 12 9 C 10.89543 9 10 9.89544 10 11 C 10 12.10456 10.89543 13 12 13 C 13.10457 13 14 12.10456 14 11 L 14 3 L 14 2 L 5 2 z M 6 3 L 13 3 L 13 4 L 6 4 L 6 3 z "
     class="ColorScheme-Text"
     id="path10" />
</svg>
